<?xml version="1.0" encoding="utf-8"?>
<!-- Generator: Adobe Illustrator 15.0.0, SVG Export Plug-In . SVG Version: 6.00 Build 0)  -->
<!DOCTYPE svg PUBLIC "-//W3C//DTD SVG 1.1//EN" "http://www.w3.org/Graphics/SVG/1.1/DTD/svg11.dtd">
<svg version="1.1" id="Layer_1" xmlns="http://www.w3.org/2000/svg" xmlns:xlink="http://www.w3.org/1999/xlink" x="0px" y="0px"
	 width="40px" height="40px" viewBox="0 0 40 40" enable-background="new 0 0 40 40" xml:space="preserve">
<g>
	<g>
		<path fill="none" stroke="#989898" stroke-width="2" d="M7.732,32.271c-6.778-6.778-6.775-17.766,0-24.541
			c6.775-6.776,17.76-6.777,24.54,0c6.772,6.775,6.772,17.763-0.002,24.537C25.493,39.045,14.505,39.046,7.732,32.271z"/>
	</g>
	<g opacity="0.25">
		<path fill="#FFFFFF" stroke="#989898" stroke-width="2" d="M7.732,32.271c-6.778-6.778-6.775-17.766,0-24.541
			c6.775-6.776,17.76-6.777,24.54,0c6.772,6.775,6.772,17.763-0.002,24.537C25.493,39.045,14.505,39.046,7.732,32.271z"/>
	</g>
</g>
<polyline fill="none" stroke="#989898" stroke-width="2" stroke-linecap="round" stroke-linejoin="round" stroke-miterlimit="10" points="
	23.01,25.979 16.14,19.804 23.01,13.685 "/>
</svg>
