<?xml version="1.0" encoding="utf-8"?>
<!-- Generator: Adobe Illustrator 15.0.0, SVG Export Plug-In . SVG Version: 6.00 Build 0)  -->
<!DOCTYPE svg PUBLIC "-//W3C//DTD SVG 1.0//EN" "http://www.w3.org/TR/2001/REC-SVG-20010904/DTD/svg10.dtd">
<svg version="1.0" id="Layer_1" xmlns="http://www.w3.org/2000/svg" xmlns:xlink="http://www.w3.org/1999/xlink" x="0px" y="0px"
	 width="70px" height="70px" viewBox="0 0 70 70" style="enable-background:new 0 0 70 70;" xml:space="preserve">
<g>
	<g>
		<path style="fill:none;stroke:#24A3E6;stroke-width:4.252;stroke-linecap:round;stroke-linejoin:round;stroke-miterlimit:10;" d="
			M24.888,39.109c0,5.361-4.346,9.709-9.708,9.709c-5.361,0-9.708-4.348-9.708-9.709"/>
		
			<line style="fill:none;stroke:#24A3E6;stroke-width:4.252;stroke-linecap:round;stroke-linejoin:round;stroke-miterlimit:10;" x1="5.472" y1="39.109" x2="15.18" y2="13.234"/>
		
			<line style="fill:none;stroke:#24A3E6;stroke-width:4.252;stroke-linecap:round;stroke-linejoin:round;stroke-miterlimit:10;" x1="15.18" y1="13.234" x2="24.888" y2="39.109"/>
		
			<line style="fill:none;stroke:#24A3E6;stroke-width:4.252;stroke-linecap:round;stroke-linejoin:round;stroke-miterlimit:10;" x1="5.472" y1="39.109" x2="24.888" y2="39.109"/>
	</g>
	
		<line style="fill:none;stroke:#24A3E6;stroke-width:4.252;stroke-linecap:round;stroke-linejoin:round;stroke-miterlimit:10;" x1="34.399" y1="7.322" x2="34.399" y2="62.678"/>
	
		<line style="fill:none;stroke:#24A3E6;stroke-width:4.252;stroke-linecap:round;stroke-linejoin:round;stroke-miterlimit:10;" x1="15.18" y1="13.234" x2="54.818" y2="21.318"/>
	<g>
		<path style="fill:none;stroke:#24A3E6;stroke-width:4.252;stroke-linecap:round;stroke-linejoin:round;stroke-miterlimit:10;" d="
			M64.527,47.193c0,5.361-4.348,9.709-9.709,9.709c-5.36,0-9.707-4.348-9.707-9.709"/>
		
			<line style="fill:none;stroke:#24A3E6;stroke-width:4.252;stroke-linecap:round;stroke-linejoin:round;stroke-miterlimit:10;" x1="45.111" y1="47.193" x2="54.818" y2="21.318"/>
		
			<line style="fill:none;stroke:#24A3E6;stroke-width:4.252;stroke-linecap:round;stroke-linejoin:round;stroke-miterlimit:10;" x1="54.818" y1="21.318" x2="64.527" y2="47.193"/>
		
			<line style="fill:none;stroke:#24A3E6;stroke-width:4.252;stroke-linecap:round;stroke-linejoin:round;stroke-miterlimit:10;" x1="45.111" y1="47.193" x2="64.527" y2="47.193"/>
	</g>
	
		<line style="fill:none;stroke:#24A3E6;stroke-width:4.252;stroke-linecap:round;stroke-linejoin:round;stroke-miterlimit:10;" x1="24.032" y1="62.678" x2="44.301" y2="62.678"/>
</g>
</svg>
