<?xml version="1.0" encoding="utf-8"?>
<!-- Generator: Adobe Illustrator 15.0.0, SVG Export Plug-In . SVG Version: 6.00 Build 0)  -->
<!DOCTYPE svg PUBLIC "-//W3C//DTD SVG 1.0//EN" "http://www.w3.org/TR/2001/REC-SVG-20010904/DTD/svg10.dtd">
<svg version="1.0" id="Layer_1" xmlns="http://www.w3.org/2000/svg" xmlns:xlink="http://www.w3.org/1999/xlink" x="0px" y="0px"
	 width="70px" height="70px" viewBox="0 0 70 70" style="enable-background:new 0 0 70 70;" xml:space="preserve">
<path style="fill:#5284C4;stroke:#24A3E6;stroke-width:2.126;stroke-miterlimit:10;" d="M36.253,63.216H33.75
	c-0.523,0-1.024-0.228-1.367-0.62l-1.075-1.242H29.26c-0.997,0-1.806-0.808-1.806-1.804v-7.11l0.923,0.256
	c0.248,0.07,0.452,0.102,0.645,0.102h12.016c0.181,0,0.37-0.027,0.604-0.083l0.904-0.239v7.076c0,0.996-0.809,1.803-1.802,1.803
	h-2.056L37.611,62.6C37.273,62.994,36.775,63.216,36.253,63.216z M28.652,53.975v5.575c0,0.333,0.273,0.606,0.607,0.606h2.596
	l1.435,1.654c0.113,0.131,0.285,0.209,0.46,0.209h2.502c0.173,0,0.339-0.074,0.45-0.203l1.438-1.66h2.604
	c0.333,0,0.602-0.273,0.602-0.606v-5.571c-0.104,0.015-0.207,0.02-0.31,0.02H29.021C28.897,53.997,28.777,53.986,28.652,53.975z
	 M34.509,49.766l0.002-0.015l-5.49-0.004c-1.092,0-1.982-0.886-1.982-1.979c0-3.31-3.761-8.209-4.19-8.76l-0.148-0.189
	c-3.456-4.107-5.529-9.521-5.529-14.458c0-9.692,7.996-17.577,17.827-17.577c9.83,0,17.83,7.885,17.83,17.577
	c0,4.83-2.015,10.174-5.399,14.295l-0.041,0.078c-0.049,0.102-0.125,0.203-0.182,0.277c-1.091,1.35-4.186,5.84-4.186,8.756
	c0,0.803-0.475,1.517-1.213,1.826l-0.22,0.047L34.509,49.766z M34.998,7.984c-9.168,0-16.629,7.342-16.629,16.376
	c0,4.663,1.967,9.789,5.268,13.707l0.163,0.213c0.737,0.941,4.438,5.854,4.438,9.488c0,0.43,0.352,0.782,0.784,0.782h5.597
	c0.134-0.718,0.457-1.465,0.958-2.628c0.159-0.371,0.341-0.788,0.539-1.261c0.005-0.015,0.01-0.022,0.015-0.037
	c0.854-2.024,1.84-4.386,2.322-6.513l-1.696-0.694c-2.564-1.229-8.511-4.618-8.902-9.841c-0.184-2.558,1.17-4.435,2.361-6.095
	c1.036-1.442,1.928-2.688,1.766-4.157l-0.408-3.713l2.715,2.553c0.383,0.362,0.772,0.723,1.163,1.085
	c4.549,4.19,10.202,9.399,5.229,17.015l-0.062,0.079l-0.704,0.76c0.084,0.853,0,1.786-0.189,2.758
	c-0.353,2.142-1.4,4.64-2.326,6.841l-0.164,0.386v0.004c-0.338,0.803-1.025,2.448-1.334,3.448l5.533-0.097
	c0.237-0.141,0.389-0.396,0.389-0.678c0-3.953,4.396-9.445,4.443-9.502c0.019-0.022,0.037-0.051,0.049-0.068l0.146-0.236
	c3.253-3.978,5.169-9.039,5.169-13.6C51.629,15.326,44.169,7.984,34.998,7.984z M33.121,16.717l0.054,0.472
	c0.213,1.929-0.904,3.486-1.984,4.992c-1.179,1.641-2.292,3.188-2.142,5.307c0.346,4.599,5.847,7.708,8.198,8.831l1.423,0.589
	c0.083-0.632,0.105-1.228,0.046-1.78c-0.774-4.413-2.456-8.421-4.607-10.999l0.92-0.77c2.682,3.212,3.995,7.426,4.616,10.276
	l0.061-0.065c4.372-6.745-0.423-11.161-5.058-15.439c-0.398-0.362-0.793-0.728-1.178-1.09L33.121,16.717z"/>
</svg>
