<?xml version="1.0" encoding="utf-8"?>
<!-- Generator: Adobe Illustrator 15.0.0, SVG Export Plug-In . SVG Version: 6.00 Build 0)  -->
<!DOCTYPE svg PUBLIC "-//W3C//DTD SVG 1.0//EN" "http://www.w3.org/TR/2001/REC-SVG-20010904/DTD/svg10.dtd">
<svg version="1.0" id="Layer_1" xmlns="http://www.w3.org/2000/svg" xmlns:xlink="http://www.w3.org/1999/xlink" x="0px" y="0px"
	 width="70px" height="70px" viewBox="0 0 70 70" style="enable-background:new 0 0 70 70;" xml:space="preserve">
<g>
	<g>
		<path style="fill:none;stroke:#24A3E6;stroke-width:4.252;stroke-linecap:round;stroke-linejoin:round;stroke-miterlimit:10;" d="
			M56.619,41.67c9.027,8.096,6.555,21.514-7.434,21.516c-13.992,0.002-16.45-13.427-7.427-21.516
			c7.392-6.626,7.394-12.436,7.429-12.552C49.225,29.002,49.227,35.04,56.619,41.67z"/>
	</g>
	<g>
		<path style="fill:none;stroke:#24A3E6;stroke-width:4.252;stroke-linecap:round;stroke-linejoin:round;stroke-miterlimit:10;" d="
			M26.116,36.854c6.188,6.791,6.043,18.385-6.275,18.385c-12.315,0-12.463-11.594-6.277-18.385
			c6.188-6.792,6.277-10.901,6.277-10.901C19.848,25.951,19.926,30.06,26.116,36.854z"/>
	</g>
	<g>
		<path style="fill:none;stroke:#24A3E6;stroke-width:4.252;stroke-linecap:round;stroke-linejoin:round;stroke-miterlimit:10;" d="
			M40.175,14.254c4.816,5.677,4.603,14.88-4.985,14.88c-9.588,0-9.805-9.203-4.989-14.88c4.816-5.677,4.988-9.028,4.988-9.028
			C35.198,5.226,35.358,8.577,40.175,14.254z"/>
	</g>
</g>
</svg>
