<?xml version="1.0" encoding="utf-8"?>
<!-- Generator: Adobe Illustrator 15.0.0, SVG Export Plug-In . SVG Version: 6.00 Build 0)  -->
<!DOCTYPE svg PUBLIC "-//W3C//DTD SVG 1.0//EN" "http://www.w3.org/TR/2001/REC-SVG-20010904/DTD/svg10.dtd">
<svg version="1.0" id="Layer_1" xmlns="http://www.w3.org/2000/svg" xmlns:xlink="http://www.w3.org/1999/xlink" x="0px" y="0px"
	 width="70px" height="70px" viewBox="0 0 70 70" style="enable-background:new 0 0 70 70;" xml:space="preserve">
<g>
	<path style="fill:#24A3E6;" d="M46.43,36.041c0.854,0.832,1.521,1.805,2.002,2.913c0.479,1.108,0.719,2.435,0.719,3.97
		c0,3.352-1.278,6.163-3.842,8.438c-2.562,2.272-5.783,3.539-9.668,3.795v9.029h-2.625v-8.967
		c-4.227-0.085-7.652-1.094-10.278-3.025c-2.625-1.93-3.938-4.326-3.938-7.188c0-1.259,0.277-2.225,0.833-2.896
		c0.555-0.672,1.334-1.008,2.337-1.008c1.131,0,2.017,0.282,2.658,0.849c0.64,0.565,0.96,1.231,0.96,2.001
		c0,0.576-0.204,1.445-0.608,2.609c-0.406,1.162-0.662,1.957-0.768,2.385c0.619,1.109,1.691,2.007,3.218,2.688
		c1.525,0.685,3.388,1.036,5.587,1.058V36.488c-0.94-0.342-1.756-0.641-2.449-0.896c-0.694-0.257-1.607-0.62-2.738-1.089
		c-2.455-1.003-4.376-2.322-5.763-3.955c-1.388-1.632-2.081-3.751-2.081-6.355c0-3.073,1.28-5.667,3.842-7.78
		c2.562-2.113,5.624-3.202,9.189-3.265V5.815h2.625v7.333c2.113,0.042,3.98,0.352,5.604,0.929c1.622,0.576,2.946,1.292,3.969,2.145
		c1.024,0.854,1.8,1.793,2.322,2.818s0.784,2.018,0.784,2.978s-0.225,1.777-0.672,2.449c-0.448,0.673-1.186,1.009-2.209,1.009
		c-1.045,0-1.916-0.267-2.61-0.8c-0.692-0.534-1.039-1.131-1.039-1.793c0-0.789,0.085-1.573,0.256-2.354
		c0.171-0.779,0.319-1.467,0.448-2.064c-0.064-0.129-0.277-0.357-0.641-0.688c-0.365-0.331-0.791-0.635-1.281-0.912
		c-0.534-0.299-1.238-0.565-2.113-0.801c-0.875-0.234-1.814-0.351-2.816-0.351v14.855c0.832,0.299,1.53,0.56,2.096,0.785
		c0.566,0.224,1.267,0.497,2.099,0.816c1.323,0.512,2.541,1.073,3.649,1.682C44.594,34.456,45.575,35.188,46.43,36.041z
		 M33.015,29.797V15.71c-2.071,0-3.811,0.587-5.219,1.76c-1.408,1.174-2.113,2.615-2.113,4.323c0,1.856,0.438,3.341,1.313,4.45
		c0.875,1.11,2.198,2.028,3.97,2.754c0.256,0.107,0.576,0.234,0.96,0.384C32.31,29.531,32.673,29.668,33.015,29.797z M43.131,45.518
		c0-1.75-0.451-3.271-1.359-4.563c-0.906-1.292-2.449-2.363-4.627-3.219c-0.277-0.106-0.539-0.201-0.783-0.287
		c-0.246-0.086-0.485-0.17-0.721-0.256v15.465c2.496-0.149,4.371-0.859,5.619-2.131C42.508,49.26,43.131,47.588,43.131,45.518z"/>
</g>
</svg>
