<?xml version="1.0" encoding="utf-8"?>
<!-- Generator: Adobe Illustrator 15.0.0, SVG Export Plug-In . SVG Version: 6.00 Build 0)  -->
<!DOCTYPE svg PUBLIC "-//W3C//DTD SVG 1.0//EN" "http://www.w3.org/TR/2001/REC-SVG-20010904/DTD/svg10.dtd">
<svg version="1.0" id="Layer_1" xmlns="http://www.w3.org/2000/svg" xmlns:xlink="http://www.w3.org/1999/xlink" x="0px" y="0px"
	 width="70px" height="70px" viewBox="0 0 70 70" style="enable-background:new 0 0 70 70;" xml:space="preserve">
<g>
	<path style="fill:none;stroke:#24A3E6;stroke-width:4.252;stroke-linecap:round;stroke-linejoin:round;stroke-miterlimit:10;" d="
		M8.207,19.719c0,0,4.777-4.344,13.396-4.481C34.08,15.039,35,19.719,35,19.719v35.05c0,0-0.92-4.681-13.396-4.482
		C12.985,50.426,8.208,54.77,8.208,54.77L8.207,19.719z"/>
	<path style="fill:none;stroke:#24A3E6;stroke-width:4.252;stroke-linecap:round;stroke-linejoin:round;stroke-miterlimit:10;" d="
		M61.793,19.719c0,0-4.777-4.344-13.396-4.481C35.919,15.039,35,19.719,35,19.719v35.05c0,0,0.919-4.681,13.396-4.482
		c8.619,0.139,13.396,4.482,13.396,4.482V19.719z"/>
</g>
</svg>
