<?xml version="1.0" encoding="utf-8"?>
<!-- Generator: Adobe Illustrator 15.0.0, SVG Export Plug-In . SVG Version: 6.00 Build 0)  -->
<!DOCTYPE svg PUBLIC "-//W3C//DTD SVG 1.0//EN" "http://www.w3.org/TR/2001/REC-SVG-20010904/DTD/svg10.dtd">
<svg version="1.0" id="Layer_1" xmlns="http://www.w3.org/2000/svg" xmlns:xlink="http://www.w3.org/1999/xlink" x="0px" y="0px"
	 width="70px" height="70px" viewBox="0 0 70 70" style="enable-background:new 0 0 70 70;" xml:space="preserve">
<g>
	<path style="fill:none;stroke:#24A3E6;stroke-width:4.252;stroke-linecap:round;stroke-linejoin:round;stroke-miterlimit:10;" d="
		M34.567,51.766C23.154,24.617,48.876,16.675,66.561,16.675"/>
	<path style="fill:none;stroke:#24A3E6;stroke-width:4.252;stroke-linecap:round;stroke-linejoin:round;stroke-miterlimit:10;" d="
		M66.561,16.675c-7.225,11.352-5.27,5.511-7.229,17.544"/>
	<path style="fill:none;stroke:#24A3E6;stroke-width:4.252;stroke-linecap:round;stroke-linejoin:round;stroke-miterlimit:10;" d="
		M34.567,51.766c6.369-4.232,20.365,2.94,24.765-17.545"/>
	<path style="fill:none;stroke:#24A3E6;stroke-width:2.126;stroke-linecap:round;stroke-linejoin:round;stroke-miterlimit:10;" d="
		M35.342,50.105c1.047-10.117,5.893-15.246,12.254-19.233"/>
	<g>
		<path style="fill:none;stroke:#24A3E6;stroke-width:4.252;stroke-linecap:round;stroke-linejoin:round;stroke-miterlimit:10;" d="
			M32.554,51.846C33.4,31.556,14.867,32.612,3.439,36.866"/>
		<path style="fill:none;stroke:#24A3E6;stroke-width:4.252;stroke-linecap:round;stroke-linejoin:round;stroke-miterlimit:10;" d="
			M3.439,36.866c7.399,5.598,4.73,2.293,8.892,9.597"/>
		<path style="fill:none;stroke:#24A3E6;stroke-width:4.252;stroke-linecap:round;stroke-linejoin:round;stroke-miterlimit:10;" d="
			M32.554,51.846c-5.134-1.203-12.451,6.799-20.223-5.383"/>
		<path style="fill:none;stroke:#24A3E6;stroke-width:2.126;stroke-linecap:round;stroke-linejoin:round;stroke-miterlimit:10;" d="
			M30.777,50.143c-2.468-4.846-6.136-6.401-10.438-7.072"/>
	</g>
</g>
</svg>
