<?xml version="1.0" encoding="utf-8"?>
<!-- Generator: Adobe Illustrator 15.0.0, SVG Export Plug-In . SVG Version: 6.00 Build 0)  -->
<!DOCTYPE svg PUBLIC "-//W3C//DTD SVG 1.0//EN" "http://www.w3.org/TR/2001/REC-SVG-20010904/DTD/svg10.dtd">
<svg version="1.0" id="Layer_1" xmlns="http://www.w3.org/2000/svg" xmlns:xlink="http://www.w3.org/1999/xlink" x="0px" y="0px"
	 width="70px" height="70px" viewBox="0 0 70 70" style="enable-background:new 0 0 70 70;" xml:space="preserve">
<g>
	
		<polyline style="fill:none;stroke:#24A3E6;stroke-width:4.252;stroke-linecap:round;stroke-linejoin:round;stroke-miterlimit:10;" points="
		4.776,43.826 34.24,26.527 63.451,43.826 	"/>
	<g>
		
			<line style="fill:none;stroke:#24A3E6;stroke-width:4.252;stroke-linecap:round;stroke-linejoin:round;stroke-miterlimit:10;" x1="15.771" y1="38.686" x2="15.771" y2="63.469"/>
		
			<line style="fill:none;stroke:#24A3E6;stroke-width:4.252;stroke-linecap:round;stroke-linejoin:round;stroke-miterlimit:10;" x1="53.398" y1="38.686" x2="53.398" y2="63.469"/>
		
			<line style="fill:none;stroke:#24A3E6;stroke-width:4.252;stroke-linecap:round;stroke-linejoin:round;stroke-miterlimit:10;" x1="13.046" y1="63.469" x2="55.719" y2="63.469"/>
	</g>
	<g>
		<path style="fill:none;stroke:#24A3E6;stroke-width:4.252;stroke-linecap:round;stroke-linejoin:round;stroke-miterlimit:10;" d="
			M33.083,25.912C32.098,3.488,52.582,4.607,65.225,9.279"/>
		<path style="fill:none;stroke:#24A3E6;stroke-width:4.252;stroke-linecap:round;stroke-linejoin:round;stroke-miterlimit:10;" d="
			M65.225,9.279c-8.164,6.207-5.223,2.548-9.803,10.632"/>
		<path style="fill:none;stroke:#24A3E6;stroke-width:4.252;stroke-linecap:round;stroke-linejoin:round;stroke-miterlimit:10;" d="
			M33.083,25.912c5.67-1.344,13.78,7.48,22.338-6"/>
		<path style="fill:none;stroke:#24A3E6;stroke-width:2.126;stroke-linecap:round;stroke-linejoin:round;stroke-miterlimit:10;" d="
			M34.076,24.928c3.42-6.953,8.238-9.34,13.838-10.511"/>
		<g>
			
				<path style="fill:none;stroke:#24A3E6;stroke-width:4.252;stroke-linecap:round;stroke-linejoin:round;stroke-miterlimit:10;" d="
				M31.623,25.436C37.589,11.157,24.062,7.015,14.77,7.037"/>
			
				<path style="fill:none;stroke:#24A3E6;stroke-width:4.252;stroke-linecap:round;stroke-linejoin:round;stroke-miterlimit:10;" d="
				M14.77,7.037c3.809,5.957,2.774,2.889,3.819,9.209"/>
			
				<path style="fill:none;stroke:#24A3E6;stroke-width:4.252;stroke-linecap:round;stroke-linejoin:round;stroke-miterlimit:10;" d="
				M31.623,25.436c-3.352-2.216-10.696,1.57-13.034-9.189"/>
			
				<path style="fill:none;stroke:#24A3E6;stroke-width:2.126;stroke-linecap:round;stroke-linejoin:round;stroke-miterlimit:10;" d="
				M30.804,23.749c-0.484-4.114-2.695-6.196-5.593-7.813"/>
		</g>
		<path style="fill:none;stroke:#24A3E6;stroke-width:2.126;stroke-linecap:round;stroke-linejoin:round;stroke-miterlimit:10;" d="
			M42.766,50.193c-6.879,3.566-12.175,2.629-17.376,0.248"/>
	</g>
</g>
<circle style="fill:none;stroke:#24A3E6;stroke-width:2.126;stroke-linecap:round;stroke-linejoin:round;stroke-miterlimit:10;" cx="29.406" cy="41.143" r="1.398"/>
<circle style="fill:none;stroke:#24A3E6;stroke-width:2.126;stroke-linecap:round;stroke-linejoin:round;stroke-miterlimit:10;" cx="38.406" cy="41.143" r="1.398"/>
</svg>
