<?xml version="1.0" encoding="utf-8"?>
<!-- Generator: Adobe Illustrator 15.0.0, SVG Export Plug-In . SVG Version: 6.00 Build 0)  -->
<!DOCTYPE svg PUBLIC "-//W3C//DTD SVG 1.0//EN" "http://www.w3.org/TR/2001/REC-SVG-20010904/DTD/svg10.dtd">
<svg version="1.0" id="Layer_1" xmlns="http://www.w3.org/2000/svg" xmlns:xlink="http://www.w3.org/1999/xlink" x="0px" y="0px"
	 width="70px" height="70px" viewBox="0 0 70 70" style="enable-background:new 0 0 70 70;" xml:space="preserve">
<rect x="31.429" y="27.859" style="fill:none;stroke:#24A3E6;stroke-width:2;stroke-miterlimit:10;" width="7.141" height="7.141"/>
<rect x="45.711" y="27.859" style="fill:none;stroke:#24A3E6;stroke-width:2;stroke-miterlimit:10;" width="7.143" height="7.141"/>
<rect x="17.148" y="38.57" style="fill:none;stroke:#24A3E6;stroke-width:2;stroke-miterlimit:10;" width="7.141" height="7.141"/>
<rect x="31.429" y="38.57" style="fill:none;stroke:#24A3E6;stroke-width:2;stroke-miterlimit:10;" width="7.141" height="7.141"/>
<rect x="45.711" y="38.57" style="fill:none;stroke:#24A3E6;stroke-width:2;stroke-miterlimit:10;" width="7.143" height="7.141"/>
<rect x="17.148" y="49.282" style="fill:none;stroke:#24A3E6;stroke-width:2;stroke-miterlimit:10;" width="7.141" height="7.141"/>
<rect x="31.429" y="49.282" style="fill:none;stroke:#24A3E6;stroke-width:2;stroke-miterlimit:10;" width="7.141" height="7.141"/>
<path style="fill:none;stroke:#24A3E6;stroke-width:4.252;stroke-miterlimit:10;" d="M62.734,18.364v42.59
	c0,1.042-0.846,1.886-1.885,1.886H9.15c-1.041,0-1.885-0.844-1.885-1.886v-42.59c0-1.042,0.844-1.886,1.885-1.886h4.896
	c1.042,0,1.853,0.871,2.224,1.845c0.746,1.959,2.645,3.356,4.863,3.356c2.219,0,4.117-1.396,4.862-3.356
	c0.37-0.973,1.181-1.845,2.224-1.845h13.56c1.043,0,1.854,0.871,2.224,1.845c0.747,1.959,2.646,3.356,4.864,3.356
	c2.217,0,4.115-1.396,4.861-3.356c0.369-0.973,1.182-1.845,2.223-1.845h4.896C61.889,16.478,62.734,17.321,62.734,18.364z"/>
<rect x="17.182" y="27.859" style="fill:none;stroke:#24A3E6;stroke-width:2;stroke-miterlimit:10;" width="7.141" height="7.141"/>
<line style="fill:none;stroke:#24A3E6;stroke-width:4.252;stroke-linecap:round;stroke-miterlimit:10;" x1="21.091" y1="15.043" x2="21.091" y2="6.341"/>
<line style="fill:none;stroke:#24A3E6;stroke-width:4.252;stroke-linecap:round;stroke-miterlimit:10;" x1="49.092" y1="15.043" x2="49.092" y2="6.341"/>
</svg>
