<?xml version="1.0" encoding="utf-8"?>
<!-- Generator: Adobe Illustrator 15.0.0, SVG Export Plug-In . SVG Version: 6.00 Build 0)  -->
<!DOCTYPE svg PUBLIC "-//W3C//DTD SVG 1.1//EN" "http://www.w3.org/Graphics/SVG/1.1/DTD/svg11.dtd">
<svg version="1.1" id="Layer_1" xmlns="http://www.w3.org/2000/svg" xmlns:xlink="http://www.w3.org/1999/xlink" x="0px" y="0px"
	 width="120px" height="120px" viewBox="0 0 120 120" style="enable-background:new 0 0 120 120;" xml:space="preserve">
<g id="pvU1tu_2_">
	<g>
		<path style="fill:#BEB9B3;" d="M74.764,50.716c-3.113,3.122-6.178,6.197-9.242,9.27C54.834,70.695,44.15,81.41,33.446,92.108
			c-0.56,0.558-0.877,1.162-1.021,1.919c-0.348,1.839-0.708,3.676-1.117,5.499c-0.077,0.345-0.325,0.749-0.617,0.936
			c-5.679,3.694-11.374,7.358-17.066,11.032c-0.65,0.42-1.294,0.851-1.904,1.252c-1.54-1.508-3.033-2.969-4.582-4.485
			c0.928-1.468,1.832-2.912,2.755-4.343c3.112-4.829,6.22-9.657,9.369-14.461c0.255-0.388,0.768-0.734,1.224-0.84
			c1.88-0.441,3.793-0.748,5.677-1.182c0.51-0.116,1.052-0.406,1.423-0.775c8.69-8.632,17.363-17.284,26.031-25.936
			c4.978-4.967,9.941-9.944,14.909-14.92c0.215-0.217,0.418-0.445,0.639-0.682c-1.702-1.711-3.354-3.407-5.049-5.061
			c-1.07-1.048-1.444-1.969-0.938-2.966c0.189-0.382,0.553-0.757,0.936-0.951c0.799-0.41,1.646-0.744,2.501-1.034
			c1.69-0.574,3.06-1.561,4.314-2.834c4.76-4.824,9.578-9.585,14.379-14.371c2.629-2.624,5.211-5.297,7.903-7.858
			c3.119-2.967,6.81-3.736,10.815-2.153c4.852,1.918,7.938,5.438,8.748,10.679c0.509,3.281-0.646,6.109-2.95,8.431
			c-5.394,5.434-10.828,10.827-16.247,16.238c-2.41,2.407-4.835,4.801-7.215,7.236c-0.399,0.405-0.652,0.975-0.888,1.506
			c-0.587,1.342-1.103,2.716-1.697,4.053c-0.484,1.095-2.239,1.291-3.222,0.345c-1.819-1.755-3.604-3.55-5.405-5.325
			C75.068,50.968,74.972,50.895,74.764,50.716z M107.257,21.526c-0.483-0.497-0.878-1.051-1.407-1.399
			c-0.618-0.407-1.18-0.032-1.656,0.442c-3.008,2.995-6.03,5.977-9.035,8.978c-4.596,4.589-9.178,9.19-13.774,13.781
			c-0.842,0.841-0.888,1.544-0.112,2.34c0.769,0.788,1.615,0.746,2.435-0.086c1.728-1.755,3.464-3.505,5.209-5.247
			c5.854-5.841,11.714-11.676,17.56-17.529C106.767,22.513,106.922,22.085,107.257,21.526z M75.401,39.562
			c0.748-0.629,1.364-1.079,1.898-1.608c3.504-3.473,6.986-6.968,10.477-10.452c3.847-3.839,7.694-7.675,11.534-11.52
			c0.826-0.825,0.885-1.799,0.194-2.479c-0.724-0.715-1.598-0.668-2.472,0.2c-2.776,2.743-5.531,5.501-8.291,8.259
			c-2.912,2.911-5.821,5.827-8.73,8.741c-1.939,1.944-3.879,3.886-5.815,5.836c-0.427,0.43-0.708,0.968-0.314,1.508
			C74.262,38.558,74.792,38.964,75.401,39.562z"/>
		<path style="fill:#BEB9B3;" d="M8.358,22.845c1.997,2.027,3.927,4.019,5.892,5.976c2.921,2.908,5.8,5.86,8.825,8.66
			c2.414,2.233,4.768,2.052,7.086-0.273c1.963-1.968,3.874-3.996,5.9-5.898c3.166-2.968,2.687-5.608-0.097-8.433
			c-4.515-4.584-8.98-9.217-13.463-13.831c-0.127-0.131-0.227-0.289-0.534-0.684c1.937-0.349,3.684-0.834,5.458-0.956
			c5.347-0.373,10.517,0.442,15.396,2.764c6.829,3.248,10.938,8.629,12.693,15.956c0.773,3.24,0.293,6.466,0.33,9.699
			c0.024,1.967-0.133,3.935-0.135,5.903c0,0.397,0.236,0.902,0.531,1.17c1.944,1.759,3.938,3.466,5.866,5.15
			c-4.831,4.838-9.629,9.639-14.46,14.475c-1.616-1.842-3.3-3.688-4.89-5.609c-0.754-0.907-1.448-1.438-2.779-1.383
			c-3.587,0.152-7.191,0.213-10.777,0.04c-10.75-0.518-19.061-6.856-21.376-17.804c-1.004-4.755-0.973-9.482,0.208-14.197
			c0.03-0.121,0.077-0.238,0.123-0.354C8.19,23.141,8.238,23.069,8.358,22.845z"/>
		<path style="fill:#BEB9B3;" d="M72.554,57.127c5.445,4.754,10.924,9.548,16.407,14.328c6.03,5.255,12.132,10.428,18.077,15.775
			c4.403,3.963,6.443,8.892,5.149,14.897c-1.117,5.174-6.356,10.021-11.617,10.661c-3.879,0.473-7.406-0.448-10.64-2.691
			c-2.327-1.615-4.029-3.811-5.862-5.885c-3.582-4.048-7.12-8.132-10.673-12.205c-3.901-4.474-7.804-8.946-11.705-13.418
			c-1.438-1.647-2.885-3.288-4.324-4.933c-0.223-0.256-0.431-0.522-0.639-0.775C62.01,67.62,67.248,62.408,72.554,57.127z
			 M105.576,97.863c-0.007-4.302-3.686-7.949-7.981-7.908c-4.311,0.041-7.845,3.593-7.865,7.906
			c-0.022,4.342,3.576,7.96,7.908,7.953C101.953,105.808,105.583,102.173,105.576,97.863z"/>
	</g>
</g>
</svg>
