<?xml version="1.0" encoding="utf-8"?>
<!-- Generator: Adobe Illustrator 15.0.0, SVG Export Plug-In . SVG Version: 6.00 Build 0)  -->
<!DOCTYPE svg PUBLIC "-//W3C//DTD SVG 1.1//EN" "http://www.w3.org/Graphics/SVG/1.1/DTD/svg11.dtd">
<svg version="1.1" id="Layer_1" xmlns="http://www.w3.org/2000/svg" xmlns:xlink="http://www.w3.org/1999/xlink" x="0px" y="0px"
	 width="50px" height="50px" viewBox="0 0 50 50" style="enable-background:new 0 0 50 50;" xml:space="preserve">
<g>
	<path style="fill:#BCBEC0;stroke:#99999A;stroke-width:2;" d="M40.91,9.087c8.789,8.79,8.785,23.036-0.002,31.823
		c-8.785,8.785-23.031,8.787-31.82-0.002C0.304,32.124,0.304,17.876,9.089,9.091C17.876,0.304,32.126,0.303,40.91,9.087z"/>
	<g>
		<path style="fill:none;stroke:#FFFFFF;stroke-width:2;" d="M32.333,30.53c0,1.015-0.86,1.837-1.923,1.837H15.173
			c-1.062,0-1.923-0.822-1.923-1.837V20.222c0-1.014,0.861-1.836,1.923-1.836H30.41c1.063,0,1.923,0.822,1.923,1.836V30.53z"/>
		<polyline style="fill:none;stroke:#FFFFFF;stroke-width:2;stroke-linecap:round;stroke-linejoin:round;" points="32.333,26.848 
			38.794,29.603 38.794,20.371 32.333,23.5 		"/>
	</g>
	<circle style="fill:none;stroke:#FFFFFF;stroke-width:2;" cx="18.49" cy="27.113" r="2.49"/>
</g>
</svg>
