<?xml version="1.0" encoding="utf-8"?>
<!-- Generator: Adobe Illustrator 15.0.0, SVG Export Plug-In . SVG Version: 6.00 Build 0)  -->
<!DOCTYPE svg PUBLIC "-//W3C//DTD SVG 1.1//EN" "http://www.w3.org/Graphics/SVG/1.1/DTD/svg11.dtd">
<svg version="1.1" id="Layer_1" xmlns="http://www.w3.org/2000/svg" xmlns:xlink="http://www.w3.org/1999/xlink" x="0px" y="0px"
	 width="120px" height="120px" viewBox="0 0 120 120" style="enable-background:new 0 0 120 120;" xml:space="preserve">
<g>
	<path style="fill:#BEB9B3;" d="M38.688,93.782c-5.196-0.628-5.867-1.606-4.059-6.277c1.803-4.666,3.836-9.24,5.695-13.883
		c0.208-0.519,0.054-1.282-0.143-1.856c-5.608-16.284-11.219-32.566-16.928-48.816c-0.32-0.911-1.315-1.849-2.229-2.24
		c-3.934-1.686-7.961-3.147-11.937-4.741c-2.799-1.123-3.868-2.895-3.074-4.91C6.83,8.981,8.8,8.354,11.545,9.416
		c4.615,1.784,9.183,3.697,13.822,5.417c2.065,0.765,3.264,2.048,3.941,4.131c0.847,2.604,1.283,6.103,3.156,7.402
		c1.89,1.309,5.316,0.445,8.073,0.447c22.686,0.01,45.372,0.002,68.062,0.009c5.562,0,6.601,1.467,4.892,6.801
		c-4.419,13.769-8.908,27.52-13.202,41.328c-0.957,3.08-2.567,4.212-5.762,4.188c-16.109-0.111-32.221-0.012-48.329-0.105
		c-1.859-0.013-2.744,0.495-3.23,2.24c-0.58,2.084-1.377,4.104-2.189,6.482c1.385,0,2.418,0,3.45,0c16.49,0,32.983,0,49.472,0.002
		c0.86,0,1.921-0.291,2.529,0.104c1.133,0.738,2.584,1.753,2.838,2.888c0.387,1.713-1.049,2.694-2.823,2.795
		c-0.755,0.038-1.51,0.007-2.68,0.007c3.305,6.362,3.279,11.987-3.072,16.036c-3.885,2.476-8.756,1.799-12.176-1.312
		c-3.857-3.509-4.278-7.781-1.32-14.498c-7.178,0-14.274,0-21.634,0c3.18,6.246,3.099,11.941-3.461,15.946
		c-3.871,2.361-8.859,1.536-12.15-1.621C36.012,104.518,35.66,100.241,38.688,93.782z M34.544,33.917
		c0.782,2.336,1.432,4.491,2.252,6.578c0.188,0.48,0.961,1.029,1.471,1.038c5.759,0.072,11.516,0.047,17.32,0.047
		c0-2.815,0-5.21,0-7.663C48.521,33.917,41.704,33.917,34.544,33.917z M105.996,34.02c-6.859,0-13.436,0-20.022,0
		c0,2.568,0,4.909,0,7.563c5.54,0,10.938,0.036,16.334-0.05c0.578-0.012,1.452-0.622,1.66-1.158
		C104.745,38.359,105.303,36.26,105.996,34.02z M62.99,48.753c0,3.046,0,5.757,0,8.614c5.307,0,10.462,0,15.7,0
		c0-2.974,0-5.757,0-8.614C73.39,48.753,68.299,48.753,62.99,48.753z M55.613,57.524c0-3.121,0-5.9,0-8.671
		c-5.365,0-10.504,0-15.937,0c0.933,2.695,1.719,5.117,2.639,7.486c0.192,0.495,0.875,1.125,1.343,1.135
		C47.613,57.565,51.568,57.524,55.613,57.524z M85.972,57.546c3.889,0,7.58,0.038,11.271-0.042c0.534-0.013,1.373-0.479,1.533-0.927
		c0.901-2.522,1.642-5.106,2.478-7.802c-5.316,0-10.224,0-15.281,0C85.972,51.64,85.972,54.358,85.972,57.546z M78.74,33.966
		c-5.311,0-10.469,0-15.712,0c0,2.573,0,4.98,0,7.382c5.348,0,10.498,0,15.712,0C78.74,38.77,78.74,36.439,78.74,33.966z
		 M62.976,71.921c5.419,0,10.58,0,15.771,0c0-2.472,0-4.719,0-7.139c-5.311,0-10.472,0-15.771,0
		C62.976,67.211,62.976,69.463,62.976,71.921z M55.644,64.803c-3.491,0-6.832,0-10.426,0c0.767,2.207,1.373,4.192,2.172,6.098
		c0.229,0.538,1.014,1.146,1.579,1.183c2.154,0.138,4.319,0.055,6.675,0.055C55.644,69.569,55.644,67.249,55.644,64.803z
		 M85.967,72.141c2.327,0,4.49,0.085,6.64-0.056c0.567-0.038,1.373-0.656,1.58-1.197c0.745-1.924,1.279-3.93,1.965-6.12
		c-3.51,0-6.774,0-10.185,0C85.967,67.162,85.967,69.41,85.967,72.141z M85.332,105.19c2.468,0.009,4.51-2.019,4.553-4.513
		c0.042-2.528-1.879-4.556-4.388-4.627c-2.602-0.077-4.808,2.055-4.768,4.602C80.771,103.058,82.928,105.182,85.332,105.19z
		 M51.534,100.694c0.055-2.508-1.886-4.563-4.377-4.644c-2.596-0.08-4.805,2.039-4.775,4.587c0.029,2.402,2.171,4.53,4.577,4.552
		C49.396,105.21,51.484,103.16,51.534,100.694z"/>
</g>
</svg>
