<?xml version="1.0" encoding="utf-8"?>
<!-- Generator: Adobe Illustrator 15.0.0, SVG Export Plug-In . SVG Version: 6.00 Build 0)  -->
<!DOCTYPE svg PUBLIC "-//W3C//DTD SVG 1.1//EN" "http://www.w3.org/Graphics/SVG/1.1/DTD/svg11.dtd">
<svg version="1.1" id="Layer_1" xmlns="http://www.w3.org/2000/svg" xmlns:xlink="http://www.w3.org/1999/xlink" x="0px" y="0px"
	 width="50px" height="50px" viewBox="0 0 50 50" style="enable-background:new 0 0 50 50;" xml:space="preserve">
<g>
	<path style="fill:#BCBEC0;stroke:#99999A;stroke-width:2;" d="M40.91,9.087c8.789,8.79,8.785,23.036-0.002,31.823
		c-8.785,8.785-23.031,8.787-31.82-0.002C0.304,32.124,0.304,17.876,9.089,9.091C17.876,0.304,32.126,0.303,40.91,9.087z"/>
	<circle style="fill:none;stroke:#FFFFFF;stroke-width:2;" cx="25" cy="25" r="13.021"/>
	<path style="fill:none;stroke:#FFFFFF;stroke-width:2;" d="M25.002,26.021c4.526,0,8.895-0.197,13.01-0.563
		C33.896,25.823,29.528,26.021,25.002,26.021c-4.527,0-8.897-0.197-13.015-0.564"/>
	<path style="fill:none;stroke:#FFFFFF;stroke-width:2;" d="M25.002,32.504c4.106,0,8.07-0.884,11.804-2.519
		C33.072,31.62,29.108,32.504,25.002,32.504c-4.107,0-8.072-0.884-11.809-2.519"/>
	<path style="fill:none;stroke:#FFFFFF;stroke-width:2;" d="M13.193,20.504c3.736-1.635,7.701-2.519,11.809-2.519
		c4.106,0,8.07,0.884,11.804,2.519c-3.733-1.635-7.697-2.519-11.804-2.519"/>
	<path style="fill:none;stroke:#FFFFFF;stroke-width:2;" d="M20.74,25.014c0,4.554,0.884,8.95,2.519,13.089
		C21.624,33.964,20.74,29.568,20.74,25.014c0-4.555,0.884-8.952,2.519-13.095"/>
	<path style="fill:none;stroke:#FFFFFF;stroke-width:2;" d="M26.74,11.919c1.635,4.144,2.519,8.54,2.519,13.095
		c0,4.554-0.884,8.95-2.519,13.089c1.635-4.14,2.519-8.535,2.519-13.089"/>
</g>
</svg>
