<?xml version="1.0" encoding="utf-8"?>
<!-- Generator: Adobe Illustrator 15.0.0, SVG Export Plug-In . SVG Version: 6.00 Build 0)  -->
<!DOCTYPE svg PUBLIC "-//W3C//DTD SVG 1.1//EN" "http://www.w3.org/Graphics/SVG/1.1/DTD/svg11.dtd">
<svg version="1.1" id="Layer_3" xmlns="http://www.w3.org/2000/svg" xmlns:xlink="http://www.w3.org/1999/xlink" x="0px" y="0px"
	 width="70px" height="70px" viewBox="0 0 70 70" style="enable-background:new 0 0 70 70;" xml:space="preserve">
<g>
	<path style="fill:none;stroke:#99999A;stroke-width:4.252;" d="M34.998,4.997c16.573,0,30.003,13.436,30.002,30.007
		c0.001,16.566-13.429,30-30.002,30C18.433,65.004,5,51.569,5,35.003C5,18.433,18.434,4.997,34.998,4.997z"/>
	<g>
		<g>
			<path style="fill:#99999A;" d="M44.614,41.105c-5.184-5.183-10.367-10.367-15.551-15.55c-2.265-2.264-5.771,1.244-3.508,3.508
				c5.184,5.183,10.367,10.366,15.551,15.55C43.37,46.877,46.878,43.369,44.614,41.105L44.614,41.105z"/>
		</g>
	</g>
	<g>
		<g>
			<path style="fill:#99999A;" d="M29.063,44.613c5.183-5.184,10.366-10.367,15.55-15.55c2.264-2.264-1.244-5.771-3.508-3.508
				c-5.184,5.183-10.367,10.367-15.55,15.55C23.292,43.369,26.799,46.877,29.063,44.613L29.063,44.613z"/>
		</g>
	</g>
</g>
</svg>
