<?xml version="1.0" encoding="utf-8"?>
<!-- Generator: Adobe Illustrator 15.0.0, SVG Export Plug-In . SVG Version: 6.00 Build 0)  -->
<!DOCTYPE svg PUBLIC "-//W3C//DTD SVG 1.1//EN" "http://www.w3.org/Graphics/SVG/1.1/DTD/svg11.dtd">
<svg version="1.1" id="Layer_1" xmlns="http://www.w3.org/2000/svg" xmlns:xlink="http://www.w3.org/1999/xlink" x="0px" y="0px"
	 width="210px" height="125px" viewBox="0 0 210 125" enable-background="new 0 0 210 125" xml:space="preserve">
<g>
	<g>
		<path fill="none" stroke="#B2B2B2" stroke-width="4" stroke-miterlimit="10" d="M206.207,31.543c0-5.332-4.363-9.695-9.695-9.695
			H13.04c-5.332,0-9.696,4.362-9.696,9.695v56.813c0,5.33,4.363,9.695,9.696,9.695h183.472c5.332,0,9.695-4.365,9.695-9.695V31.543
			L206.207,31.543z"/>
	</g>
	<g id="XcF8S9_2_">
		<g>
			<path fill="#B2B2B2" d="M97.734,74.118c-2.493-0.003-3.904-1.047-3.952-2.857c-0.052-1.902,1.402-3.037,3.995-3.037
				c13.716-0.008,4.007-0.004,17.727,0.008c2.447,0,3.865,1.117,3.852,2.965c-0.016,1.844-1.416,2.92-3.893,2.923
				C108.602,74.132,104.592,74.132,97.734,74.118z"/>
		</g>
	</g>
	<g>
		
			<line fill="none" stroke="#B2B2B2" stroke-width="4" stroke-linecap="round" stroke-linejoin="round" stroke-miterlimit="10" x1="4.787" y1="84.597" x2="204.764" y2="84.597"/>
	</g>
</g>
</svg>
