<?xml version="1.0" encoding="utf-8"?>
<!-- Generator: Adobe Illustrator 15.0.0, SVG Export Plug-In . SVG Version: 6.00 Build 0)  -->
<!DOCTYPE svg PUBLIC "-//W3C//DTD SVG 1.1//EN" "http://www.w3.org/Graphics/SVG/1.1/DTD/svg11.dtd">
<svg version="1.1" xmlns="http://www.w3.org/2000/svg" xmlns:xlink="http://www.w3.org/1999/xlink" x="0px" y="0px" width="50px"
	 height="50px" viewBox="0 0 50 50" enable-background="new 0 0 50 50" xml:space="preserve">
<g id="Layer_1">
	<g>
		<path fill="#BCBEC0" stroke="#99999A" stroke-width="2" d="M40.91,9.087c8.789,8.79,8.785,23.036-0.002,31.823
			c-8.785,8.785-23.031,8.787-31.82-0.002C0.304,32.124,0.304,17.876,9.089,9.091C17.876,0.304,32.126,0.303,40.91,9.087z"/>
		<g>
			<path fill="#FFFFFF" d="M20.098,14.446l1.3,2.261c-2.368,1.161-3.973,3.436-3.973,6.044H25h7.574
				c0-2.608-1.605-4.883-3.973-6.044l1.301-2.261c0,0,0.063-0.12-0.053-0.187c-0.119-0.067-0.197,0.047-0.197,0.047l-1.32,2.281
				c-1.007-0.447-2.137-0.701-3.332-0.701s-2.326,0.254-3.332,0.701l-1.32-2.281c0,0-0.075-0.116-0.191-0.048
				C20.039,14.325,20.098,14.446,20.098,14.446L20.098,14.446z M21.398,18.827c0.397,0,0.72,0.323,0.72,0.72
				c0,0.396-0.323,0.71-0.72,0.71c-0.396,0-0.72-0.314-0.72-0.71C20.678,19.149,21.001,18.827,21.398,18.827z M28.602,18.827
				c0.398,0,0.721,0.323,0.721,0.72c0,0.396-0.322,0.71-0.721,0.71c-0.396,0-0.721-0.314-0.721-0.71
				C27.881,19.149,28.205,18.827,28.602,18.827z"/>
			<path fill="#FFFFFF" d="M17.365,23.633v11.492c0,0.571,0.689,1.317,1.259,1.317h1.803v3.916c0,0.998,0.727,1.803,1.631,1.803
				c0.904,0,1.63-0.805,1.63-1.803v-3.916h2.621v3.916c0,0.998,0.728,1.803,1.632,1.803s1.64-0.805,1.64-1.803v-3.916h1.794
				c0.572,0,1.26-0.746,1.26-1.317V23.633H17.365L17.365,23.633z"/>
			<path fill="#FFFFFF" d="M14.852,23.393L14.852,23.393c0.903,0,1.633,0.806,1.633,1.8v6.819c0,0.995-0.73,1.801-1.633,1.801l0,0
				c-0.901,0-1.633-0.806-1.633-1.801v-6.819C13.219,24.199,13.95,23.393,14.852,23.393z"/>
			<path fill="#FFFFFF" d="M35.148,23.393L35.148,23.393c0.903,0,1.633,0.806,1.633,1.8v6.819c0,0.995-0.729,1.801-1.633,1.801l0,0
				c-0.902,0-1.633-0.806-1.633-1.801v-6.819C33.516,24.199,34.246,23.393,35.148,23.393z"/>
		</g>
		<g>
			<g>
				<path fill="#BCBEC0" stroke="#FFFFFF" stroke-width="2" d="M18.962,12.619c0,0.955-0.81,1.729-1.81,1.729H2.81
					c-1,0-1.81-0.774-1.81-1.729V2.916c0-0.955,0.811-1.729,1.81-1.729h14.342c1,0,1.81,0.774,1.81,1.729V12.619z"/>
				<polyline fill="#BCBEC0" stroke="#FFFFFF" stroke-width="2" stroke-linecap="round" stroke-linejoin="round" points="
					18.962,9.152 25.043,11.747 25.043,3.056 18.962,6.001 				"/>
			</g>
			<circle fill="#BCBEC0" stroke="#FFFFFF" stroke-width="2" cx="5.933" cy="9.402" r="2.344"/>
		</g>
	</g>
</g>
<g id="Layer_2">
</g>
</svg>
