<?xml version="1.0" encoding="utf-8"?>
<!-- Generator: Adobe Illustrator 15.0.0, SVG Export Plug-In . SVG Version: 6.00 Build 0)  -->
<!DOCTYPE svg PUBLIC "-//W3C//DTD SVG 1.1//EN" "http://www.w3.org/Graphics/SVG/1.1/DTD/svg11.dtd">
<svg version="1.1" id="Layer_1" xmlns="http://www.w3.org/2000/svg" xmlns:xlink="http://www.w3.org/1999/xlink" x="0px" y="0px"
	 width="210px" height="125px" viewBox="0 0 210 125" enable-background="new 0 0 210 125" xml:space="preserve">
<path fill="none" stroke="#B2B2B2" stroke-width="4" stroke-miterlimit="10" d="M44.111,8.491
	c-11.205,1.578-40.074,5.644-40.074,5.644s0,62.535,0,71.218s8.866,11.205,8.866,11.205s127.891,22.525,137.2,24.17
	s14.424-0.119,22.537-4.254c5.004-2.553,18.198-11.416,25.982-18.707c5.064-4.74,7.342-6.033,7.342-16.387c0-7.488,0-40.27,0-58.521
	c0-10.415-4.722-12.969-21.307-12.969c-13.086,0-75.209-3.447-104.001-4.548C66.531,4.799,55.316,6.913,44.111,8.491z"/>
<g>
	
		<path fill="none" stroke="#B2B2B2" stroke-width="4" stroke-linecap="round" stroke-linejoin="round" stroke-miterlimit="10" enable-background="new    " d="
		M201.726,12.593c0,0-20.201,8.433-31.311,10.979c-11.113,2.548-31.372,0.851-31.372,0.851
		C114.604,22.966,4.038,16.517,4.038,16.517"/>
	<path fill="none" stroke="#000000" stroke-width="1.6976" stroke-linejoin="round" stroke-miterlimit="10" d="M158.838,117.633"/>
	<path fill="#B2B2B2" enable-background="new    " d="M30.572,24.349c2.924,0.572,3.527,1.557,3.6,3.486
		c0.077,2.028-0.043,2.864-2.995,2.893c-7.982-0.461-11.501-1.019-16.489-1.463c-3.715-0.466-3.749-1.98-3.749-3.95
		c-0.001-1.966,0.926-2.549,3.738-2.329C22.531,23.599,22.531,23.599,30.572,24.349z"/>
	<g>
		<g>
			<g>
				<g>
					<defs>
						<path id="SVGID_1_" d="M164.672,30.034v81.202c0,0,3.712,2.859,8.729,0c5.021-2.863,25.644-19.834,25.644-19.834
							l-1.082-73.172L164.672,30.034z"/>
					</defs>
					<clipPath id="SVGID_2_">
						<use xlink:href="#SVGID_1_"  overflow="visible"/>
					</clipPath>
				</g>
			</g>
		</g>
		<g>
			<g>
				<g>
					<defs>
						<path id="SVGID_3_" d="M164.672,30.034v81.202c0,0,3.712,2.859,8.729,0c5.021-2.863,25.644-19.834,25.644-19.834
							l-1.082-73.172L164.672,30.034z"/>
					</defs>
					<clipPath id="SVGID_4_">
						<use xlink:href="#SVGID_3_"  overflow="visible"/>
					</clipPath>
					
						<path clip-path="url(#SVGID_4_)" fill="none" stroke="#B2B2B2" stroke-width="1.6976" stroke-linejoin="round" stroke-miterlimit="10" d="
						M163.179,53.969c2.479,0.001,5.567,0.793,11.861-2.44c6.296-3.232,25.934-13.317,25.934-13.317"/>
					
						<path clip-path="url(#SVGID_4_)" fill="none" stroke="#B2B2B2" stroke-width="1.6976" stroke-linejoin="round" stroke-miterlimit="10" d="
						M163.179,60.859c2.479,0.002,5.567,0.793,11.861-2.441c6.296-3.232,25.934-13.316,25.934-13.316"/>
					
						<path clip-path="url(#SVGID_4_)" fill="none" stroke="#B2B2B2" stroke-width="1.6976" stroke-linejoin="round" stroke-miterlimit="10" d="
						M163.179,40.283c6.407,0.014,7.717,0.111,15.79-3.619l22.005-10.419"/>
					
						<path clip-path="url(#SVGID_4_)" fill="none" stroke="#B2B2B2" stroke-width="1.6976" stroke-linejoin="round" stroke-miterlimit="10" d="
						M163.179,34.314c4.771,0.083,7.606-0.51,13.682-2.961l22.184-9.398"/>
					
						<path clip-path="url(#SVGID_4_)" fill="none" stroke="#B2B2B2" stroke-width="1.6976" stroke-linejoin="round" stroke-miterlimit="10" d="
						M163.179,46.911c2.479,0.001,6.952,0,11.861-2.441l25.934-12.253"/>
					
						<path clip-path="url(#SVGID_4_)" fill="none" stroke="#B2B2B2" stroke-width="1.6976" stroke-linejoin="round" stroke-miterlimit="10" d="
						M163.179,68.781c2.479,0,4.729,1.203,11.021-2.027c6.298-3.232,26.773-15.367,26.773-15.367"/>
					
						<path clip-path="url(#SVGID_4_)" fill="none" stroke="#B2B2B2" stroke-width="1.6976" stroke-linejoin="round" stroke-miterlimit="10" d="
						M163.179,77.238c2.479,0.004,4.145,0.256,10.59-2.705c8.31-3.814,27.205-16.319,27.205-16.319"/>
					
						<path clip-path="url(#SVGID_4_)" fill="none" stroke="#B2B2B2" stroke-width="1.6976" stroke-linejoin="round" stroke-miterlimit="10" d="
						M163.179,85.057c2.479,0.002,5.567,0.793,11.861-2.439c6.296-3.232,25.115-17.35,25.115-17.35"/>
					
						<path clip-path="url(#SVGID_4_)" fill="none" stroke="#B2B2B2" stroke-width="1.6976" stroke-linejoin="round" stroke-miterlimit="10" d="
						M163.179,93.074c2.479,0,5.567,0.791,11.861-2.441c6.296-3.232,27.023-19.242,27.023-19.242"/>
					
						<path clip-path="url(#SVGID_4_)" fill="none" stroke="#B2B2B2" stroke-width="1.6976" stroke-linejoin="round" stroke-miterlimit="10" d="
						M163.179,99.721c2.479,0.002,5.567,0.793,11.861-2.441c6.296-3.232,27.023-19.24,27.023-19.24"/>
					
						<path clip-path="url(#SVGID_4_)" fill="none" stroke="#B2B2B2" stroke-width="1.6976" stroke-linejoin="round" stroke-miterlimit="10" d="
						M163.179,108.08c2.479,0,6.055,1.51,11.861-2.439c7.582-5.152,25.277-18.439,25.277-18.439"/>
				</g>
			</g>
		</g>
		<g>
			<g>
				<g>
					<defs>
						<path id="SVGID_5_" d="M164.672,30.034v81.202c0,0,3.712,2.859,8.729,0c5.021-2.863,25.644-19.834,25.644-19.834
							l-1.082-73.172L164.672,30.034z"/>
					</defs>
					<clipPath id="SVGID_6_">
						<use xlink:href="#SVGID_5_"  overflow="visible"/>
					</clipPath>
				</g>
			</g>
		</g>
		<g>
			<g>
				<g>
					<defs>
						<path id="SVGID_7_" d="M164.672,30.034v81.202c0,0,3.712,2.859,8.729,0c5.021-2.863,25.644-19.834,25.644-19.834
							l-1.082-73.172L164.672,30.034z"/>
					</defs>
					<clipPath id="SVGID_8_">
						<use xlink:href="#SVGID_7_"  overflow="visible"/>
					</clipPath>
				</g>
			</g>
		</g>
		<g>
			<g>
				<g>
					<defs>
						<path id="SVGID_9_" d="M164.672,30.034v81.202c0,0,3.712,2.859,8.729,0c5.021-2.863,25.644-19.834,25.644-19.834
							l-1.082-73.172L164.672,30.034z"/>
					</defs>
					<clipPath id="SVGID_10_">
						<use xlink:href="#SVGID_9_"  overflow="visible"/>
					</clipPath>
				</g>
			</g>
		</g>
		<g>
			<g>
				<g>
					<defs>
						<path id="SVGID_11_" d="M164.672,30.034v81.202c0,0,3.712,2.859,8.729,0c5.021-2.863,25.644-19.834,25.644-19.834
							l-1.082-73.172L164.672,30.034z"/>
					</defs>
					<clipPath id="SVGID_12_">
						<use xlink:href="#SVGID_11_"  overflow="visible"/>
					</clipPath>
				</g>
			</g>
		</g>
		<g>
			<g>
				<g>
					<defs>
						<path id="SVGID_13_" d="M164.672,30.034v81.202c0,0,3.712,2.859,8.729,0c5.021-2.863,25.644-19.834,25.644-19.834
							l-1.082-73.172L164.672,30.034z"/>
					</defs>
					<clipPath id="SVGID_14_">
						<use xlink:href="#SVGID_13_"  overflow="visible"/>
					</clipPath>
				</g>
			</g>
		</g>
		<g>
			<g>
				<g>
					<defs>
						<path id="SVGID_15_" d="M164.672,30.034v81.202c0,0,3.712,2.859,8.729,0c5.021-2.863,25.644-19.834,25.644-19.834
							l-1.082-73.172L164.672,30.034z"/>
					</defs>
					<clipPath id="SVGID_16_">
						<use xlink:href="#SVGID_15_"  overflow="visible"/>
					</clipPath>
				</g>
			</g>
		</g>
		<g>
			<g>
				<g>
					<defs>
						<path id="SVGID_17_" d="M164.672,30.034v81.202c0,0,3.712,2.859,8.729,0c5.021-2.863,25.644-19.834,25.644-19.834
							l-1.082-73.172L164.672,30.034z"/>
					</defs>
					<clipPath id="SVGID_18_">
						<use xlink:href="#SVGID_17_"  overflow="visible"/>
					</clipPath>
				</g>
			</g>
		</g>
		<g>
			<g>
				<g>
					<defs>
						<path id="SVGID_19_" d="M164.672,30.034v81.202c0,0,3.712,2.859,8.729,0c5.021-2.863,25.644-19.834,25.644-19.834
							l-1.082-73.172L164.672,30.034z"/>
					</defs>
					<clipPath id="SVGID_20_">
						<use xlink:href="#SVGID_19_"  overflow="visible"/>
					</clipPath>
				</g>
			</g>
		</g>
		<g>
			<g>
				<g>
					<defs>
						<path id="SVGID_21_" d="M164.672,30.034v81.202c0,0,3.712,2.859,8.729,0c5.021-2.863,25.644-19.834,25.644-19.834
							l-1.082-73.172L164.672,30.034z"/>
					</defs>
					<clipPath id="SVGID_22_">
						<use xlink:href="#SVGID_21_"  overflow="visible"/>
					</clipPath>
				</g>
			</g>
		</g>
	</g>
	<g>
		<g>
			<g>
				<g>
					<defs>
						<polygon id="SVGID_23_" points="155.507,31.824 155.507,114.779 80.657,101.561 80.657,27.333 						"/>
					</defs>
					<clipPath id="SVGID_24_">
						<use xlink:href="#SVGID_23_"  overflow="visible"/>
					</clipPath>
				</g>
			</g>
		</g>
		<g>
			<g>
				<g>
					<defs>
						<polygon id="SVGID_25_" points="155.507,31.824 155.507,114.779 80.657,101.561 80.657,27.333 						"/>
					</defs>
					<clipPath id="SVGID_26_">
						<use xlink:href="#SVGID_25_"  overflow="visible"/>
					</clipPath>
					
						<line clip-path="url(#SVGID_26_)" fill="none" stroke="#B2B2B2" stroke-width="1.6976" stroke-linejoin="round" stroke-miterlimit="10" x1="79.688" y1="36.918" x2="159.454" y2="41.28"/>
					
						<line clip-path="url(#SVGID_26_)" fill="none" stroke="#B2B2B2" stroke-width="1.6976" stroke-linejoin="round" stroke-miterlimit="10" x1="79.688" y1="30.921" x2="159.454" y2="35.283"/>
					
						<line clip-path="url(#SVGID_26_)" fill="none" stroke="#B2B2B2" stroke-width="1.6976" stroke-linejoin="round" stroke-miterlimit="10" x1="79.688" y1="42.917" x2="159.454" y2="47.796"/>
					
						<line clip-path="url(#SVGID_26_)" fill="none" stroke="#B2B2B2" stroke-width="1.6976" stroke-linejoin="round" stroke-miterlimit="10" x1="79.688" y1="48.859" x2="160" y2="54.856"/>
					
						<line clip-path="url(#SVGID_26_)" fill="none" stroke="#B2B2B2" stroke-width="1.6976" stroke-linejoin="round" stroke-miterlimit="10" x1="79.688" y1="55.181" x2="159.454" y2="61.832"/>
					
						<line clip-path="url(#SVGID_26_)" fill="none" stroke="#B2B2B2" stroke-width="1.6976" stroke-linejoin="round" stroke-miterlimit="10" x1="79.655" y1="62.566" x2="159.454" y2="69.844"/>
					
						<line clip-path="url(#SVGID_26_)" fill="none" stroke="#B2B2B2" stroke-width="1.6976" stroke-linejoin="round" stroke-miterlimit="10" x1="79.688" y1="69.475" x2="158.838" y2="77.674"/>
					
						<line clip-path="url(#SVGID_26_)" fill="none" stroke="#B2B2B2" stroke-width="1.6976" stroke-linejoin="round" stroke-miterlimit="10" x1="79.688" y1="76.473" x2="158.838" y2="86.098"/>
					
						<line clip-path="url(#SVGID_26_)" fill="none" stroke="#B2B2B2" stroke-width="1.6976" stroke-linejoin="round" stroke-miterlimit="10" x1="79.688" y1="83.57" x2="159.454" y2="94.047"/>
					
						<line clip-path="url(#SVGID_26_)" fill="none" stroke="#B2B2B2" stroke-width="1.6976" stroke-linejoin="round" stroke-miterlimit="10" x1="79.688" y1="90.627" x2="158.599" y2="101.561"/>
					
						<line clip-path="url(#SVGID_26_)" fill="none" stroke="#B2B2B2" stroke-width="1.6976" stroke-linejoin="round" stroke-miterlimit="10" x1="80.277" y1="98.168" x2="158.528" y2="109.484"/>
				</g>
			</g>
		</g>
		<g>
			<g>
				<g>
					<defs>
						<polygon id="SVGID_27_" points="155.507,31.824 155.507,114.779 80.657,101.561 80.657,27.333 						"/>
					</defs>
					<clipPath id="SVGID_28_">
						<use xlink:href="#SVGID_27_"  overflow="visible"/>
					</clipPath>
				</g>
			</g>
		</g>
		<g>
			<g>
				<g>
					<defs>
						<polygon id="SVGID_29_" points="155.507,31.824 155.507,114.779 80.657,101.561 80.657,27.333 						"/>
					</defs>
					<clipPath id="SVGID_30_">
						<use xlink:href="#SVGID_29_"  overflow="visible"/>
					</clipPath>
				</g>
			</g>
		</g>
		<g>
			<g>
				<g>
					<defs>
						<polygon id="SVGID_31_" points="155.507,31.824 155.507,114.779 80.657,101.561 80.657,27.333 						"/>
					</defs>
					<clipPath id="SVGID_32_">
						<use xlink:href="#SVGID_31_"  overflow="visible"/>
					</clipPath>
				</g>
			</g>
		</g>
		<g>
			<g>
				<g>
					<defs>
						<polygon id="SVGID_33_" points="155.507,31.824 155.507,114.779 80.657,101.561 80.657,27.333 						"/>
					</defs>
					<clipPath id="SVGID_34_">
						<use xlink:href="#SVGID_33_"  overflow="visible"/>
					</clipPath>
				</g>
			</g>
		</g>
		<g>
			<g>
				<g>
					<defs>
						<polygon id="SVGID_35_" points="155.507,31.824 155.507,114.779 80.657,101.561 80.657,27.333 						"/>
					</defs>
					<clipPath id="SVGID_36_">
						<use xlink:href="#SVGID_35_"  overflow="visible"/>
					</clipPath>
				</g>
			</g>
		</g>
		<g>
			<g>
				<g>
					<defs>
						<polygon id="SVGID_37_" points="155.507,31.824 155.507,114.779 80.657,101.561 80.657,27.333 						"/>
					</defs>
					<clipPath id="SVGID_38_">
						<use xlink:href="#SVGID_37_"  overflow="visible"/>
					</clipPath>
				</g>
			</g>
		</g>
		<g>
			<g>
				<g>
					<defs>
						<polygon id="SVGID_39_" points="155.507,31.824 155.507,114.779 80.657,101.561 80.657,27.333 						"/>
					</defs>
					<clipPath id="SVGID_40_">
						<use xlink:href="#SVGID_39_"  overflow="visible"/>
					</clipPath>
				</g>
			</g>
		</g>
		<g>
			<g>
				<g>
					<defs>
						<polygon id="SVGID_41_" points="155.507,31.824 155.507,114.779 80.657,101.561 80.657,27.333 						"/>
					</defs>
					<clipPath id="SVGID_42_">
						<use xlink:href="#SVGID_41_"  overflow="visible"/>
					</clipPath>
				</g>
			</g>
		</g>
		<g>
			<g>
				<g>
					<defs>
						<polygon id="SVGID_43_" points="155.507,31.824 155.507,114.779 80.657,101.561 80.657,27.333 						"/>
					</defs>
					<clipPath id="SVGID_44_">
						<use xlink:href="#SVGID_43_"  overflow="visible"/>
					</clipPath>
					
						<path clip-path="url(#SVGID_44_)" fill="none" stroke="#000000" stroke-width="1.6976" stroke-linejoin="round" stroke-miterlimit="10" d="
						M81.434,106.336"/>
				</g>
			</g>
		</g>
		<g>
			<g>
				<g>
					<defs>
						<polygon id="SVGID_45_" points="155.507,31.824 155.507,114.779 80.657,101.561 80.657,27.333 						"/>
					</defs>
					<clipPath id="SVGID_46_">
						<use xlink:href="#SVGID_45_"  overflow="visible"/>
					</clipPath>
				</g>
			</g>
		</g>
	</g>
</g>
</svg>
