<?xml version="1.0" encoding="utf-8"?>
<!-- Generator: Adobe Illustrator 15.0.0, SVG Export Plug-In . SVG Version: 6.00 Build 0)  -->
<!DOCTYPE svg PUBLIC "-//W3C//DTD SVG 1.1//EN" "http://www.w3.org/Graphics/SVG/1.1/DTD/svg11.dtd">
<svg version="1.1" id="Layer_1" xmlns="http://www.w3.org/2000/svg" xmlns:xlink="http://www.w3.org/1999/xlink" x="0px" y="0px"
	 width="120px" height="120px" viewBox="0 0 120 120" style="enable-background:new 0 0 120 120;" xml:space="preserve">
<g>
	<path style="fill:#BEB9B3;" d="M114.496,94.146c-0.274-3.529-2.297-6.063-4.833-8.249c-4.244-3.657-9.236-6.03-14.551-7.532
		c-6.333-1.789-12.793-3.142-19.422-4.74c0.283-0.446,0.654-1.067,1.056-1.667c3.708-5.553,7.566-11.015,11.101-16.676
		c4.496-7.197,5.91-15.146,4.663-23.502C89.519,11.745,68.867-1.147,49.646,5.24C36.561,9.587,28.821,18.922,26.788,32.542
		c-1.327,8.875,0.775,17.212,5.852,24.688c7.644,11.256,15.323,22.486,22.997,33.724c1.24,1.819,2.522,3.609,3.898,5.579
		c0.533-0.7,0.915-1.168,1.26-1.659c2.667-3.796,5.404-7.546,7.943-11.425c0.94-1.433,2.015-1.823,3.551-1.566
		c4.438,0.743,8.926,1.276,13.313,2.264c4.944,1.111,9.826,2.59,13.845,5.918c3.621,3,3.695,6.658-0.076,9.463
		c-2.244,1.671-4.852,2.983-7.471,3.991c-6.615,2.549-13.575,3.555-20.61,4.192c-12.026,1.092-23.957,0.607-35.768-1.94
		c-5.266-1.135-10.465-2.595-14.835-5.952c-4.098-3.15-4.108-6.743-0.114-9.967c0.86-0.694,1.789-1.362,2.789-1.811
		c2.306-1.032,4.623-2.091,7.029-2.829c3.256-0.997,6.603-1.706,10.053-2.573c-1.522-2.17-2.917-4.283-4.475-6.269
		c-0.331-0.427-1.342-0.663-1.905-0.505c-4.448,1.248-8.942,2.409-13.273,4.005c-4.601,1.693-8.882,4.084-12.255,7.792
		c-4.015,4.411-4.085,9.535-0.205,14.015c2.69,3.105,6.111,5.2,9.787,6.892c12.01,5.535,24.83,7.219,37.858,7.746
		c8.046,0.327,16.069-0.21,24.023-1.466c8.083-1.273,16.058-3.086,23.283-7.053c3.092-1.694,5.899-4.026,8.534-6.405
		C113.833,99.565,114.717,96.971,114.496,94.146z M59.552,53.812c-9.015-0.023-16.379-7.425-16.363-16.448
		c0.018-9.303,7.414-16.508,16.9-16.463c8.845,0.042,16.056,7.487,16.017,16.532C76.067,46.633,68.789,53.835,59.552,53.812z"/>
</g>
</svg>
