<?xml version="1.0" encoding="utf-8"?>
<!-- Generator: Adobe Illustrator 15.0.0, SVG Export Plug-In . SVG Version: 6.00 Build 0)  -->
<!DOCTYPE svg PUBLIC "-//W3C//DTD SVG 1.1//EN" "http://www.w3.org/Graphics/SVG/1.1/DTD/svg11.dtd">
<svg version="1.1" id="Layer_1" xmlns="http://www.w3.org/2000/svg" xmlns:xlink="http://www.w3.org/1999/xlink" x="0px" y="0px"
	 width="266px" height="279px" viewBox="0 0 266 279" style="enable-background:new 0 0 266 279;" xml:space="preserve">
<g>
	<g>
		<path style="fill:#74ACDF;" d="M203,86.75c0,11.43-2.734,22.258-7.602,31.774L133,240.75c0,0-62.891-123.239-63.136-123.758
			C65.461,107.859,63,97.578,63,86.75c0-38.665,31.336-70,70-70C171.664,16.75,203,48.086,203,86.75z M175,86.75
			c0-23.188-18.813-42-42-42s-42,18.813-42,42s18.813,42,42,42S175,109.938,175,86.75z"/>
		<path style="fill:none;stroke:#74ACDF;stroke-width:11.3386;stroke-linecap:round;stroke-miterlimit:10;" d="M157.449,220.17
			c0.777,0.061,1.55,0.123,2.317,0.188c33.408,2.854,57.483,10.905,57.483,20.392c0,11.874-37.72,21.5-84.25,21.5
			c-46.53,0-84.25-9.626-84.25-21.5c0-9.497,24.13-17.557,57.599-20.402c1.086-0.093,2.183-0.18,3.288-0.261"/>
	</g>
	
		<line style="fill:none;stroke:#74ACDF;stroke-width:19.8425;stroke-linecap:round;stroke-miterlimit:10;" x1="113.325" y1="106.383" x2="152.157" y2="67.551"/>
	
		<line style="fill:none;stroke:#74ACDF;stroke-width:19.8425;stroke-linecap:round;stroke-miterlimit:10;" x1="152.157" y1="106.383" x2="113.325" y2="67.551"/>
</g>
</svg>
