<?xml version="1.0" encoding="utf-8"?>
<!-- Generator: Adobe Illustrator 15.0.0, SVG Export Plug-In . SVG Version: 6.00 Build 0)  -->
<!DOCTYPE svg PUBLIC "-//W3C//DTD SVG 1.0//EN" "http://www.w3.org/TR/2001/REC-SVG-20010904/DTD/svg10.dtd">
<svg version="1.0" id="Layer_1" xmlns="http://www.w3.org/2000/svg" xmlns:xlink="http://www.w3.org/1999/xlink" x="0px" y="0px"
	 width="50px" height="50px" viewBox="0 0 50 50" style="enable-background:new 0 0 50 50;" xml:space="preserve">
<g>
	<path style="fill:#BCBEC0;stroke:#99999A;stroke-width:2;" d="M40.91,9.087c8.789,8.79,8.785,23.036-0.002,31.823
		c-8.785,8.785-23.031,8.788-31.82-0.002C0.304,32.124,0.304,17.876,9.089,9.091C17.876,0.304,32.126,0.303,40.91,9.087z"/>
	<g>
		<path style="fill:none;stroke:#FFFFFF;stroke-width:2;stroke-linecap:round;stroke-linejoin:round;stroke-miterlimit:10;" d="
			M33.874,22.517v8.162c0,2.196-1.781,3.978-3.978,3.978h-9.793c-2.197,0-3.978-1.781-3.978-3.978v-8.162H33.874z"/>
		<g>
			<path style="fill:none;stroke:#FFFFFF;stroke-width:2;stroke-linecap:round;stroke-linejoin:round;stroke-miterlimit:10;" d="
				M20.6,18.882c0-2.377,1.978-4.305,4.417-4.305c2.44,0,4.418,1.928,4.418,4.305v6.963"/>
			
				<line style="fill:none;stroke:#FFFFFF;stroke-width:2;stroke-linecap:round;stroke-linejoin:round;stroke-miterlimit:10;" x1="20.6" y1="19.231" x2="20.6" y2="25.846"/>
		</g>
	</g>
</g>
</svg>
